<svg width="1024" height="1024" viewBox="0 0 1024 1024" fill="none" xmlns="http://www.w3.org/2000/svg">
<g clip-path="url(#clip0_5_8)">
<path d="M263.23 395.981C260.909 394.402 258.743 392.704 256.575 390.922C223.688 363.913 202.901 327.318 198.806 284.652C198.691 283.377 198.593 282.102 198.511 280.826C198.427 279.549 198.36 278.271 198.309 276.992C198.257 275.714 198.222 274.435 198.203 273.156C198.183 271.877 198.179 270.598 198.192 269.319C198.204 268.039 198.232 266.76 198.277 265.481C198.32 264.203 198.38 262.925 198.455 261.647C198.531 260.37 198.623 259.094 198.731 257.82C198.838 256.545 198.96 255.271 199.098 253.999C199.238 252.727 199.392 251.458 199.563 250.19C199.733 248.922 199.919 247.656 200.12 246.392C200.322 245.129 200.539 243.868 200.773 242.61C201.006 241.352 201.254 240.097 201.518 238.846C201.782 237.593 202.061 236.345 202.356 235.1C202.651 233.856 202.962 232.614 203.288 231.376C203.613 230.139 203.954 228.907 204.31 227.677C204.666 226.45 205.038 225.225 205.426 224.005C205.812 222.786 206.213 221.572 206.63 220.362C207.047 219.153 207.479 217.949 207.926 216.75C208.372 215.551 208.833 214.357 209.31 213.169C209.785 211.981 210.276 210.8 210.781 209.626C211.287 208.45 211.806 207.281 212.341 206.119C212.876 204.957 213.425 203.801 213.987 202.652C214.551 201.503 215.128 200.361 215.719 199.227C216.311 198.093 216.917 196.965 217.536 195.845C218.155 194.725 218.788 193.614 219.435 192.511C220.082 191.406 220.742 190.311 221.417 189.224C222.09 188.137 222.778 187.057 223.479 185.986C224.179 184.916 224.893 183.855 225.62 182.802C226.347 181.75 227.087 180.706 227.841 179.671C228.594 178.636 229.359 177.612 230.137 176.596C230.915 175.581 231.706 174.576 232.51 173.58C233.314 172.584 234.129 171.598 234.957 170.623C263.013 137.007 301.349 121.178 344.233 117.398C352.991 116.911 361.719 117.236 370.416 118.373C411.743 123.404 447.828 145.502 473.281 178.161C497.887 209.736 508.042 252.412 502.909 291.886C498.935 322.446 483.351 354.062 461.924 376.157C454.822 383.48 446.754 389.743 438.657 395.914C460.639 396.085 482.619 396.382 504.597 396.804C506.756 470.628 494.135 534.01 442.024 589.934C440.797 591.246 439.555 592.544 438.298 593.826C437.04 595.109 435.766 596.376 434.477 597.627C433.189 598.878 431.886 600.114 430.568 601.334C429.249 602.554 427.915 603.758 426.567 604.945C425.22 606.132 423.858 607.304 422.482 608.458C421.106 609.613 419.716 610.75 418.312 611.87C416.909 612.991 415.491 614.095 414.061 615.181C412.63 616.268 411.186 617.337 409.729 618.387C408.273 619.438 406.804 620.472 405.322 621.488C403.841 622.504 402.348 623.501 400.842 624.481C399.335 625.461 397.818 626.421 396.289 627.363C394.76 628.306 393.22 629.23 391.669 630.135C390.117 631.04 388.554 631.927 386.981 632.794C385.408 633.662 383.825 634.511 382.232 635.339C380.638 636.168 379.034 636.978 377.421 637.767C375.808 638.557 374.185 639.328 372.553 640.078C370.922 640.83 369.282 641.56 367.632 642.271C365.982 642.982 364.324 643.673 362.657 644.343C360.991 645.013 359.316 645.663 357.634 646.294C355.952 646.924 354.262 647.533 352.566 648.122C350.869 648.711 349.165 649.279 347.454 649.827C345.743 650.375 344.026 650.902 342.303 651.408C340.579 651.914 338.85 652.399 337.114 652.863C335.38 653.327 333.639 653.77 331.892 654.192C330.147 654.613 328.396 655.013 326.64 655.393C324.885 655.773 323.125 656.13 321.36 656.467C319.595 656.804 317.827 657.12 316.055 657.414C314.282 657.706 312.507 657.979 310.728 658.23C308.95 658.481 307.168 658.709 305.384 658.916C303.599 659.124 301.813 659.309 300.023 659.474C298.236 659.638 296.445 659.78 294.653 659.9C292.861 660.021 291.067 660.12 289.272 660.197C272.263 661.164 254.917 660.633 237.876 660.63C201.888 660.294 165.903 660.502 129.922 661.256C128.871 630.456 129.66 599.375 129.655 568.545L129.643 396.072L263.23 395.981ZM341.239 150.736C306.895 155.614 276.837 170.219 255.679 198.382C235.518 225.218 228.252 257.656 233.115 290.682C237.74 322.093 255.602 348.144 280.903 366.834C304.698 384.41 332.877 391.051 362.143 390.072C396.552 384.689 426.811 369.85 447.825 341.321C448.995 339.732 450.125 338.115 451.215 336.47C452.305 334.825 453.353 333.154 454.359 331.456C455.367 329.76 456.331 328.039 457.253 326.295C458.174 324.549 459.051 322.782 459.885 320.994C460.72 319.206 461.509 317.398 462.253 315.57C462.997 313.742 463.695 311.898 464.349 310.036C465.001 308.174 465.607 306.296 466.166 304.404C466.726 302.511 467.238 300.606 467.702 298.689C468.167 296.771 468.585 294.843 468.954 292.905C469.323 290.966 469.644 289.02 469.916 287.067C470.189 285.112 470.413 283.152 470.589 281.187C470.764 279.221 470.89 277.252 470.968 275.28C471.046 273.309 471.075 271.336 471.055 269.364C471.035 267.39 470.966 265.418 470.848 263.449C470.73 261.479 470.563 259.514 470.347 257.552C470.132 255.591 469.868 253.636 469.556 251.688C469.249 249.704 468.894 247.729 468.488 245.763C468.083 243.797 467.63 241.842 467.128 239.898C466.624 237.955 466.073 236.026 465.474 234.11C464.875 232.194 464.229 230.294 463.536 228.411C462.842 226.527 462.102 224.662 461.316 222.815C460.529 220.968 459.697 219.141 458.82 217.336C457.942 215.531 457.021 213.749 456.054 211.989C455.087 210.23 454.077 208.496 453.025 206.787C451.972 205.078 450.877 203.396 449.74 201.742C448.603 200.088 447.425 198.463 446.207 196.867C444.989 195.271 443.732 193.706 442.436 192.173C441.14 190.64 439.807 189.141 438.437 187.674C437.066 186.208 435.659 184.777 434.217 183.381C432.775 181.984 431.299 180.624 429.79 179.301C428.279 177.979 426.737 176.695 425.164 175.449C423.59 174.203 421.986 172.998 420.351 171.832C398.505 156.186 368.163 147.057 341.239 150.736ZM259.064 429.26C282.459 446.718 302.814 477.66 307.151 506.755C312.114 540.058 303.445 572.678 283.301 599.512C276.02 609.21 267.246 618.96 257.624 626.366C305.097 626.452 348.96 621.108 388.813 592.672C432.106 561.163 459.857 515.148 468.233 462.34C469.916 451.734 471.329 440.831 471.234 430.087C446.362 427.976 420.173 429.299 395.176 429.254L259.064 429.26Z" fill="black"/>
<path d="M587.783 396.453C583.12 393.25 578.483 389.827 574.074 386.277C573.139 385.508 572.214 384.729 571.299 383.939C570.384 383.148 569.478 382.347 568.582 381.536C567.686 380.723 566.8 379.899 565.925 379.064C565.049 378.23 564.183 377.385 563.328 376.529C562.474 375.673 561.631 374.807 560.797 373.931C559.963 373.055 559.14 372.169 558.329 371.272C557.517 370.375 556.716 369.468 555.926 368.552C555.136 367.636 554.358 366.71 553.591 365.775C552.825 364.84 552.07 363.895 551.327 362.941C550.583 361.987 549.851 361.024 549.131 360.052C548.41 359.08 547.702 358.099 547.007 357.11C546.311 356.121 545.627 355.124 544.956 354.117C544.285 353.111 543.626 352.097 542.979 351.075C542.333 350.053 541.7 349.023 541.078 347.985C540.457 346.947 539.849 345.901 539.253 344.849C538.657 343.796 538.075 342.736 537.505 341.67C536.936 340.602 536.38 339.528 535.836 338.447C535.293 337.367 534.763 336.28 534.247 335.185C533.73 334.092 533.227 332.992 532.739 331.886C532.249 330.78 531.773 329.668 531.311 328.551C530.849 327.433 530.401 326.31 529.967 325.181C529.531 324.052 529.111 322.918 528.704 321.779C528.298 320.639 527.905 319.495 527.527 318.346C527.148 317.198 526.784 316.045 526.433 314.887C526.082 313.73 525.746 312.567 525.424 311.401C525.103 310.235 524.795 309.065 524.503 307.892C524.21 306.719 523.932 305.542 523.668 304.362C523.404 303.181 523.154 301.997 522.92 300.812C522.685 299.625 522.464 298.435 522.258 297.243C522.052 296.052 521.861 294.858 521.684 293.661C521.508 292.464 521.346 291.266 521.199 290.066C521.053 288.864 520.92 287.662 520.802 286.459C520.662 285.203 520.537 283.945 520.428 282.686C520.318 281.428 520.224 280.169 520.146 278.907C520.068 277.646 520.006 276.384 519.959 275.122C519.912 273.859 519.881 272.596 519.865 271.333C519.85 270.069 519.85 268.805 519.867 267.542C519.883 266.278 519.914 265.015 519.961 263.753C520.008 262.49 520.071 261.228 520.149 259.967C520.228 258.706 520.322 257.446 520.431 256.188C520.542 254.929 520.667 253.671 520.807 252.416C520.948 251.16 521.105 249.906 521.276 248.655C521.449 247.403 521.637 246.153 521.839 244.906C522.043 243.659 522.262 242.414 522.495 241.172C522.729 239.931 522.978 238.692 523.242 237.456C523.507 236.221 523.787 234.989 524.082 233.761C524.377 232.532 524.687 231.307 525.012 230.087C525.338 228.866 525.679 227.649 526.034 226.437C526.39 225.224 526.761 224.016 527.146 222.813C527.531 221.609 527.932 220.411 528.347 219.218C528.762 218.024 529.192 216.836 529.638 215.654C530.082 214.472 530.541 213.295 531.015 212.124C531.49 210.951 531.978 209.786 532.48 208.627C532.983 207.468 533.5 206.315 534.031 205.169C534.563 204.023 535.109 202.884 535.668 201.75C536.228 200.617 536.802 199.491 537.389 198.374C537.977 197.255 538.578 196.144 539.193 195.04C539.809 193.936 540.438 192.84 541.08 191.752C541.722 190.664 542.378 189.584 543.047 188.513C543.716 187.441 544.398 186.377 545.093 185.322C545.789 184.267 546.497 183.221 547.219 182.184C547.94 181.146 548.674 180.118 549.421 179.099C550.168 178.08 550.928 177.07 551.699 176.07C552.471 175.069 553.255 174.078 554.052 173.098C581.687 139.278 619.92 121.734 662.837 117.391C670.744 116.02 680.281 116.631 688.284 117.384C689.519 117.513 690.753 117.657 691.984 117.817C693.217 117.976 694.447 118.15 695.675 118.339C696.901 118.529 698.127 118.733 699.35 118.954C700.572 119.173 701.792 119.408 703.009 119.657C704.226 119.907 705.439 120.172 706.649 120.452C707.86 120.731 709.066 121.026 710.27 121.335C711.473 121.645 712.672 121.969 713.867 122.307C715.062 122.647 716.253 123 717.439 123.367C718.626 123.736 719.807 124.119 720.984 124.516C722.161 124.914 723.332 125.326 724.499 125.752C725.666 126.177 726.828 126.618 727.984 127.073C729.14 127.527 730.29 127.996 731.434 128.479C732.579 128.962 733.717 129.459 734.849 129.97C735.982 130.481 737.107 131.006 738.226 131.545C739.346 132.084 740.459 132.636 741.564 133.202C742.67 133.768 743.768 134.348 744.86 134.942C745.951 135.535 747.035 136.142 748.112 136.762C749.188 137.381 750.257 138.014 751.318 138.661C752.379 139.306 753.432 139.965 754.476 140.638C755.52 141.31 756.557 141.995 757.585 142.693C758.613 143.39 759.632 144.1 760.641 144.823C761.652 145.546 762.654 146.282 763.645 147.029C764.637 147.776 765.62 148.535 766.595 149.306C767.568 150.078 768.531 150.862 769.485 151.658C770.439 152.452 771.384 153.26 772.319 154.079C773.253 154.897 774.177 155.727 775.091 156.569C776.005 157.409 776.909 158.262 777.801 159.125C778.694 159.989 779.577 160.864 780.448 161.749C781.319 162.634 782.179 163.53 783.028 164.436C783.878 165.343 784.716 166.26 785.543 167.186C786.369 168.114 787.184 169.051 787.988 169.998C788.792 170.946 789.584 171.903 790.364 172.869C791.164 173.851 791.951 174.842 792.727 175.843C793.502 176.844 794.265 177.855 795.015 178.876C795.765 179.895 796.503 180.925 797.228 181.963C797.952 183.002 798.664 184.049 799.363 185.104C800.063 186.161 800.748 187.226 801.421 188.299C802.092 189.372 802.751 190.453 803.396 191.542C804.042 192.632 804.674 193.729 805.293 194.833C805.911 195.939 806.516 197.052 807.107 198.172C807.697 199.292 808.274 200.419 808.837 201.553C809.399 202.688 809.947 203.829 810.482 204.976C811.016 206.124 811.537 207.279 812.043 208.44C812.549 209.601 813.04 210.768 813.518 211.942C813.994 213.114 814.456 214.292 814.904 215.477C815.351 216.662 815.784 217.852 816.203 219.047C816.62 220.243 817.023 221.443 817.412 222.648C817.801 223.853 818.174 225.063 818.532 226.278C818.891 227.493 819.234 228.712 819.563 229.935C819.89 231.158 820.203 232.384 820.501 233.616C820.799 234.846 821.081 236.08 821.348 237.318C821.615 238.556 821.867 239.797 822.103 241.042C822.339 242.285 822.56 243.532 822.766 244.781C822.971 246.031 823.16 247.283 823.335 248.536C823.51 249.791 823.669 251.047 823.811 252.305C823.955 253.563 824.082 254.823 824.193 256.084C824.306 257.346 824.402 258.609 824.482 259.874C824.564 261.137 824.629 262.401 824.678 263.666C824.727 264.932 824.76 266.198 824.778 267.463C824.796 268.73 824.798 269.997 824.785 271.262C824.771 272.528 824.742 273.794 824.698 275.06C824.652 276.326 824.591 277.59 824.516 278.854C824.439 280.119 824.347 281.382 824.239 282.643C824.132 283.904 824.009 285.164 823.87 286.424C818.925 331.54 793.995 367.954 759.322 395.937C804.525 396.984 849.83 395.902 895.057 396.647C894.563 433.135 894.412 469.624 894.602 506.115C894.429 557.295 894.601 608.473 895.118 659.649C847.993 659.855 800.869 659.809 753.744 659.509C686.983 658.345 630.952 643.186 582.641 593.878C580.567 591.772 578.539 589.622 576.556 587.43C574.572 585.239 572.635 583.007 570.744 580.734C568.854 578.462 567.012 576.151 565.217 573.802C563.423 571.452 561.68 569.066 559.987 566.643C558.292 564.221 556.65 561.764 555.059 559.274C553.467 556.782 551.928 554.259 550.443 551.704C548.957 549.148 547.525 546.562 546.147 543.947C544.769 541.332 543.447 538.689 542.18 536.018C540.912 533.348 539.701 530.652 538.547 527.931C537.392 525.21 536.295 522.466 535.255 519.698C534.216 516.932 533.234 514.144 532.311 511.335C531.388 508.528 530.524 505.702 529.72 502.857C528.915 500.013 528.169 497.153 527.483 494.277C526.798 491.403 526.173 488.514 525.608 485.612C525.044 482.711 524.54 479.799 524.097 476.877C523.654 473.954 523.272 471.023 522.951 468.084C520.376 444.422 521.083 420.56 521.245 396.804C543.426 396.872 565.605 396.755 587.783 396.453ZM674.226 150.004C640.348 151.437 608.379 162.986 585.067 188.398C583.724 189.868 582.417 191.371 581.146 192.906C579.876 194.44 578.643 196.005 577.448 197.599C576.253 199.193 575.098 200.815 573.982 202.465C572.867 204.116 571.791 205.793 570.756 207.495C569.722 209.197 568.729 210.924 567.779 212.675C566.828 214.426 565.921 216.199 565.057 217.994C564.192 219.788 563.371 221.603 562.595 223.438C561.819 225.272 561.088 227.125 560.401 228.995C559.714 230.865 559.073 232.751 558.479 234.653C557.884 236.553 557.336 238.467 556.834 240.396C556.332 242.324 555.877 244.263 555.47 246.214C555.062 248.163 554.702 250.122 554.389 252.09C554.076 254.057 553.812 256.031 553.596 258.012C553.379 259.992 553.21 261.976 553.09 263.965C552.97 265.953 552.898 267.943 552.875 269.935C552.85 271.928 552.875 273.919 552.948 275.91C553.035 277.887 553.171 279.861 553.356 281.831C553.54 283.802 553.774 285.766 554.057 287.724C554.34 289.684 554.671 291.634 555.051 293.576C555.43 295.519 555.858 297.45 556.335 299.37C556.811 301.292 557.336 303.2 557.908 305.095C558.479 306.99 559.097 308.869 559.763 310.733C560.428 312.596 561.139 314.443 561.897 316.272C562.654 318.1 563.456 319.908 564.304 321.696C565.152 323.485 566.044 325.251 566.979 326.994C567.915 328.739 568.894 330.458 569.915 332.153C570.937 333.848 572 335.517 573.104 337.159C574.208 338.801 575.353 340.415 576.539 342C577.724 343.584 578.947 345.139 580.21 346.663C581.473 348.187 582.773 349.679 584.111 351.138C585.448 352.596 586.82 354.021 588.229 355.411C589.636 356.802 591.077 358.157 592.554 359.476C614.762 379.408 641.188 387.828 670.476 389.899C672.442 389.924 674.408 389.901 676.374 389.829C678.339 389.757 680.301 389.638 682.26 389.469C684.219 389.3 686.173 389.084 688.122 388.82C690.071 388.555 692.012 388.243 693.945 387.883C695.878 387.523 697.802 387.116 699.714 386.661C701.628 386.206 703.529 385.705 705.417 385.156C707.306 384.608 709.18 384.014 711.04 383.373C712.899 382.732 714.741 382.047 716.567 381.315C718.392 380.584 720.198 379.808 721.986 378.987C723.773 378.168 725.539 377.305 727.285 376.397C729.029 375.49 730.75 374.54 732.448 373.548C734.146 372.557 735.818 371.523 737.466 370.449C739.114 369.375 740.734 368.261 742.326 367.108C743.918 365.953 745.481 364.761 747.015 363.531C748.549 362.299 750.051 361.031 751.522 359.726C752.994 358.422 754.432 357.081 755.837 355.705C757.26 354.31 758.647 352.881 759.998 351.417C761.351 349.953 762.666 348.456 763.943 346.927C765.221 345.397 766.46 343.837 767.66 342.246C768.86 340.656 770.02 339.037 771.14 337.388C772.26 335.74 773.338 334.065 774.375 332.363C775.411 330.661 776.405 328.934 777.357 327.183C778.308 325.432 779.215 323.658 780.078 321.863C780.94 320.067 781.759 318.251 782.532 316.414C783.305 314.577 784.032 312.722 784.713 310.85C785.395 308.977 786.029 307.088 786.615 305.184C787.203 303.28 787.743 301.362 788.235 299.431C788.727 297.5 789.171 295.559 789.566 293.606C789.962 291.652 790.31 289.691 790.608 287.721C790.906 285.751 791.156 283.774 791.356 281.791C791.557 279.809 791.708 277.822 791.81 275.833C791.912 273.842 791.964 271.851 791.967 269.858C792.235 237.672 778.247 206.499 755.632 183.827C734.298 162.442 704.134 151.225 674.226 150.004ZM554.403 428.696C550.318 472.782 564.125 521.343 592.403 555.488C625.401 595.332 667.802 618.523 719.384 623.066C736.077 624.538 752.978 624.107 769.711 623.846C760.122 616.515 750.846 608.907 743.032 599.649C723.247 574.609 714.668 544.605 718.314 512.822C721.745 482.908 735.983 454.53 759.902 435.808C762.677 433.636 765.593 431.647 768.508 429.67C731.92 427.928 695.209 428.713 658.586 428.581C623.957 428.457 589.005 427.388 554.403 428.696Z" fill="black"/>
<path d="M130.463 905.948C128.123 843.384 131.565 790.52 173.352 739.517C205.847 699.853 253.044 676.716 303.726 671.812C306.838 671.478 310.142 671.489 313.273 671.481C365.197 671.359 409.98 691.951 446.676 728.265C449.623 731.211 452.461 734.258 455.189 737.408C457.918 740.556 460.531 743.798 463.03 747.133C465.527 750.469 467.901 753.889 470.154 757.395C472.407 760.9 474.532 764.48 476.529 768.138C501.386 812.679 501.431 856.497 501.879 905.839C482.611 906.437 463.118 905.818 443.825 905.811L327.265 905.776C261.664 905.449 196.063 905.506 130.463 905.948ZM310.456 705.203C265.815 710.469 226.241 726.884 197.821 762.966C173.681 793.612 159.71 834.226 163.918 873.386L322.881 873.421L468.499 873.468C467.47 824.112 456.951 783.135 420.193 748.007C392.475 721.517 352.464 703.433 313.687 704.924C312.591 704.966 311.543 705.075 310.456 705.203Z" fill="black"/>
<path d="M522.497 905.96C520.712 839.619 523.524 785.441 570.359 733.293C605.19 694.511 652.36 674.617 703.912 671.877C704.649 671.793 705.387 671.725 706.128 671.696C754.374 669.758 801.73 690.812 835.823 724.354C837.789 726.277 839.713 728.24 841.594 730.245C843.477 732.25 845.315 734.294 847.11 736.377C848.904 738.46 850.655 740.58 852.36 742.736C854.064 744.894 855.723 747.087 857.335 749.316C858.947 751.544 860.51 753.805 862.026 756.099C863.541 758.394 865.007 760.719 866.424 763.076C867.84 765.433 869.206 767.819 870.52 770.233C871.836 772.648 873.1 775.089 874.311 777.558C875.522 780.027 876.68 782.52 877.785 785.037C878.89 787.555 879.941 790.096 880.937 792.659C881.935 795.222 882.877 797.804 883.765 800.407C884.652 803.01 885.483 805.63 886.259 808.268C887.034 810.906 887.753 813.56 888.417 816.228C889.079 818.897 889.685 821.578 890.234 824.272C890.783 826.967 891.274 829.673 891.708 832.388C892.141 835.103 892.517 837.826 892.836 840.557C895.134 862.006 894.183 884.448 894.278 906.026L713.643 905.838L522.497 905.96ZM702.111 705.212C656.507 710.485 617.362 727.131 588.195 763.806C562.513 796.1 556.59 833.408 554.603 873.475L717.609 873.229C765.332 873.107 813.349 871.95 861.037 873.473C860.758 824.678 850.934 785.346 815.231 749.83C787.059 721.806 748.04 704.672 708.139 704.894C706.102 704.906 704.131 704.949 702.111 705.212Z" fill="black"/>
</g>
<defs>
<clipPath id="clip0_5_8">
<rect width="1024" height="1024" fill="white"/>
</clipPath>
</defs>
</svg>
